 <svg width="151" height="84" viewBox="0 0 151 84" fill="none" xmlns="http://www.w3.org/2000/svg">
        <path d="M10.9773 56.0677V70.9995H2.64205V36.0904H10.7045V49.6245H10.9943C11.5852 48.0109 12.5511 46.7495 13.892 45.8404C15.2443 44.9313 16.8977 44.4768 18.8523 44.4768C20.6932 44.4768 22.2955 44.8859 23.6591 45.7041C25.0227 46.5109 26.0795 47.6529 26.8295 49.1302C27.5909 50.6075 27.9659 52.3347 27.9545 54.312V70.9995H19.6193V55.9484C19.6307 54.4938 19.267 53.3575 18.5284 52.5393C17.7898 51.7211 16.75 51.312 15.4091 51.312C14.5341 51.312 13.7614 51.5052 13.0909 51.8916C12.4318 52.2666 11.9148 52.8063 11.5398 53.5109C11.1761 54.2154 10.9886 55.0677 10.9773 56.0677ZM40.5384 71.4427C38.8679 71.4427 37.3849 71.1643 36.0895 70.6075C34.8054 70.0393 33.7884 69.187 33.0384 68.0506C32.2997 66.9029 31.9304 65.4654 31.9304 63.7381C31.9304 62.2836 32.1861 61.0563 32.6974 60.0563C33.2088 59.0563 33.9134 58.2438 34.8111 57.6188C35.7088 56.9938 36.7429 56.5222 37.9134 56.2041C39.0838 55.8745 40.3338 55.6529 41.6634 55.5393C43.152 55.4029 44.3509 55.2609 45.2599 55.1131C46.169 54.9541 46.8281 54.7325 47.2372 54.4484C47.6577 54.1529 47.8679 53.7381 47.8679 53.2041V53.1188C47.8679 52.2438 47.5668 51.5677 46.9645 51.0904C46.3622 50.6131 45.5497 50.3745 44.527 50.3745C43.4247 50.3745 42.5384 50.6131 41.8679 51.0904C41.1974 51.5677 40.7713 52.2268 40.5895 53.0677L32.902 52.795C33.1293 51.2041 33.7145 49.7836 34.6577 48.5336C35.6122 47.2722 36.919 46.2836 38.5781 45.5677C40.2486 44.8404 42.2543 44.4768 44.5952 44.4768C46.2656 44.4768 47.8054 44.6756 49.2145 45.0734C50.6236 45.4597 51.8509 46.0279 52.8963 46.7779C53.9418 47.5166 54.7486 48.4256 55.3168 49.5052C55.8963 50.5847 56.1861 51.8177 56.1861 53.2041V70.9995H48.3452V67.3518H48.1406C47.6747 68.2381 47.0781 68.9881 46.3509 69.6018C45.6349 70.2154 44.7884 70.6756 43.8111 70.9825C42.8452 71.2893 41.7543 71.4427 40.5384 71.4427ZM43.1122 65.9881C44.0099 65.9881 44.8168 65.8063 45.5327 65.4427C46.2599 65.0791 46.8395 64.5791 47.2713 63.9427C47.7031 63.295 47.919 62.545 47.919 61.6927V59.2041C47.6804 59.3291 47.3906 59.4427 47.0497 59.545C46.7202 59.6472 46.3565 59.7438 45.9588 59.8347C45.5611 59.9256 45.152 60.0052 44.7315 60.0734C44.3111 60.1416 43.9077 60.2041 43.5213 60.2609C42.7372 60.3859 42.0668 60.5791 41.5099 60.8404C40.9645 61.1018 40.544 61.4427 40.2486 61.8631C39.9645 62.2722 39.8224 62.7609 39.8224 63.3291C39.8224 64.1927 40.1293 64.8518 40.7429 65.3063C41.3679 65.7609 42.1577 65.9881 43.1122 65.9881ZM61.2827 70.9995V36.0904H69.6179V49.3006H69.7884C70.1293 48.5052 70.6122 47.7381 71.2372 46.9995C71.8736 46.2609 72.6804 45.6586 73.6577 45.1927C74.6463 44.7154 75.8281 44.4768 77.2031 44.4768C79.0213 44.4768 80.7202 44.9541 82.2997 45.9086C83.8906 46.8631 85.1747 48.3347 86.152 50.3234C87.1293 52.312 87.6179 54.8461 87.6179 57.9256C87.6179 60.8916 87.1463 63.3745 86.2031 65.3745C85.2713 67.3745 84.0099 68.8745 82.419 69.8745C80.8395 70.8745 79.0838 71.3745 77.152 71.3745C75.8338 71.3745 74.6918 71.1586 73.7259 70.7268C72.7599 70.295 71.9474 69.7268 71.2884 69.0222C70.6406 68.3177 70.1406 67.562 69.7884 66.7552H69.5327V70.9995H61.2827ZM69.4474 57.9086C69.4474 59.3177 69.6349 60.545 70.0099 61.5904C70.3963 62.6359 70.9474 63.4484 71.6634 64.0279C72.3906 64.5961 73.2599 64.8802 74.2713 64.8802C75.294 64.8802 76.1634 64.5961 76.8793 64.0279C77.5952 63.4484 78.1349 62.6359 78.4986 61.5904C78.8736 60.545 79.0611 59.3177 79.0611 57.9086C79.0611 56.4995 78.8736 55.2779 78.4986 54.2438C78.1349 53.2097 77.5952 52.4086 76.8793 51.8404C76.1747 51.2722 75.3054 50.9881 74.2713 50.9881C73.2486 50.9881 72.3793 51.2666 71.6634 51.8234C70.9474 52.3802 70.3963 53.1756 70.0099 54.2097C69.6349 55.2438 69.4474 56.4768 69.4474 57.9086ZM91.9858 70.9995V44.8177H100.321V70.9995H91.9858ZM96.1619 41.7666C94.9915 41.7666 93.9858 41.3802 93.1449 40.6075C92.304 39.8234 91.8835 38.8802 91.8835 37.7779C91.8835 36.687 92.304 35.7552 93.1449 34.9825C93.9858 34.1984 94.9915 33.8063 96.1619 33.8063C97.3438 33.8063 98.3494 34.1984 99.179 34.9825C100.02 35.7552 100.44 36.687 100.44 37.7779C100.44 38.8802 100.02 39.8234 99.179 40.6075C98.3494 41.3802 97.3438 41.7666 96.1619 41.7666ZM120.405 44.8177V50.9541H103.888V44.8177H120.405ZM107.348 38.545H115.683V62.7666C115.683 63.2779 115.763 63.6927 115.922 64.0109C116.092 64.3177 116.337 64.5393 116.655 64.6756C116.973 64.8006 117.354 64.8631 117.797 64.8631C118.115 64.8631 118.45 64.8347 118.803 64.7779C119.166 64.7097 119.439 64.6529 119.621 64.6075L120.882 70.6245C120.484 70.7381 119.922 70.8802 119.195 71.0506C118.479 71.2211 117.621 71.3291 116.621 71.3745C114.666 71.4654 112.99 71.2381 111.592 70.6927C110.206 70.1359 109.143 69.2722 108.405 68.1018C107.678 66.9313 107.325 65.4597 107.348 63.687V38.545ZM147.188 52.812L139.534 53.0166C139.455 52.4711 139.239 51.9881 138.886 51.5677C138.534 51.1359 138.074 50.8006 137.506 50.562C136.949 50.312 136.301 50.187 135.562 50.187C134.597 50.187 133.773 50.3802 133.091 50.7666C132.42 51.1529 132.091 51.6756 132.102 52.3347C132.091 52.8461 132.295 53.2893 132.716 53.6643C133.148 54.0393 133.915 54.3404 135.017 54.5677L140.062 55.5222C142.676 56.0222 144.619 56.8518 145.892 58.0109C147.176 59.17 147.824 60.7041 147.835 62.6131C147.824 64.4086 147.29 65.9711 146.233 67.3006C145.188 68.6302 143.756 69.6643 141.938 70.4029C140.119 71.1302 138.04 71.4938 135.699 71.4938C131.96 71.4938 129.011 70.7268 126.852 69.1927C124.705 67.6472 123.477 65.5791 123.17 62.9881L131.403 62.7836C131.585 63.7381 132.057 64.4654 132.818 64.9654C133.58 65.4654 134.551 65.7154 135.733 65.7154C136.801 65.7154 137.67 65.5166 138.341 65.1188C139.011 64.7211 139.352 64.1927 139.364 63.5336C139.352 62.9427 139.091 62.4711 138.58 62.1188C138.068 61.7552 137.267 61.4711 136.176 61.2666L131.608 60.3972C128.983 59.92 127.028 59.0393 125.744 57.7552C124.46 56.4597 123.824 54.812 123.835 52.812C123.824 51.062 124.29 49.5677 125.233 48.3291C126.176 47.0791 127.517 46.1245 129.256 45.4654C130.994 44.8063 133.045 44.4768 135.409 44.4768C138.955 44.4768 141.75 45.2211 143.795 46.7097C145.841 48.187 146.972 50.2211 147.188 52.812Z" fill="white"/>
        <rect x="0.5" y="0.499512" width="15" height="15" rx="3.5" fill="#18181B" stroke="#27272A"/>
        <rect x="20.5" y="0.499512" width="15" height="15" rx="3.5" fill="#4C1D95" stroke="#6D28D9"/>
        <rect x="40.5" y="0.499512" width="15" height="15" rx="3.5" fill="#5B21B6" stroke="#7C3AED"/>
        <rect x="60.5" y="0.499512" width="15" height="15" rx="3.5" fill="#6D28D9" stroke="#8B5CF6"/>
        <rect x="80.5" y="0.499512" width="15" height="15" rx="3.5" fill="#7C3AED" stroke="#A78BFA"/>
        <rect x="100.5" y="0.499512" width="15" height="15" rx="3.5" fill="#8B5CF6" stroke="#C4B5FD"/>
        </svg>